<svg xmlns="http://www.w3.org/2000/svg" xmlns:xlink="http://www.w3.org/1999/xlink" viewBox="0,0,256,256" width="48px" height="48px" fill-rule="nonzero"><g fill="none" fill-rule="nonzero" stroke="none" stroke-width="1" stroke-linecap="butt" stroke-linejoin="miter" stroke-miterlimit="10" stroke-dasharray="" stroke-dashoffset="0" font-family="none" font-weight="none" font-size="none" text-anchor="none" style="mix-blend-mode: normal"><g transform="scale(5.33333,5.33333)"><path d="M45,29.316c0,-0.637 -1.686,-1.153 -3.769,-1.153c-1.812,0 -3.32,0.391 -3.683,0.911c-3.586,-1.694 -7.173,-3.388 -10.759,-5.083c-1.248,-0.59 -2.673,-0.584 -3.918,0.014c-3.818,1.837 -7.636,3.674 -11.454,5.511c-0.864,-0.126 -1.907,-0.201 -3.032,-0.201c-2.977,0.001 -5.385,0.517 -5.385,1.154v3.46c0,0.033 0.033,0.064 0.045,0.096c-0.146,0.555 0.07,1.205 0.649,1.478c5.641,2.665 11.281,5.329 16.922,7.994c1.432,0.677 3.068,0.671 4.496,-0.016c6.442,-3.1 12.884,-6.199 19.327,-9.299c0.484,-0.233 0.651,-0.786 0.509,-1.247c0.023,-0.053 0.052,-0.105 0.052,-0.16z" fill="#ffffff"></path><path d="M20.616,39.158c-5.641,-2.522 -11.281,-5.044 -16.922,-7.566c-0.922,-0.412 -0.926,-1.727 -0.007,-2.146c6.395,-2.912 12.789,-5.824 19.184,-8.736c1.244,-0.567 2.67,-0.572 3.918,-0.014c5.881,2.63 11.763,5.259 17.644,7.889c0.754,0.337 0.758,1.414 0.006,1.756c-6.442,2.934 -12.884,5.868 -19.327,8.801c-1.428,0.65 -3.064,0.656 -4.496,0.016z" fill="#000000"></path><path d="M45,21.675c0,-0.637 -1.686,-1.153 -3.769,-1.153c-1.812,0 -3.32,0.391 -3.683,0.911c-3.586,-1.694 -7.173,-3.388 -10.759,-5.083c-1.248,-0.59 -2.673,-0.584 -3.918,0.014c-3.818,1.837 -7.636,3.674 -11.454,5.511c-0.864,-0.126 -1.907,-0.201 -3.032,-0.201c-2.977,0.001 -5.385,0.518 -5.385,1.155v3.46c0,0.033 0.033,0.064 0.045,0.096c-0.146,0.555 0.07,1.205 0.649,1.478c5.641,2.665 11.281,5.329 16.922,7.994c1.432,0.677 3.068,0.671 4.496,-0.016c6.442,-3.1 12.884,-6.199 19.327,-9.299c0.484,-0.233 0.651,-0.786 0.509,-1.247c0.023,-0.053 0.052,-0.105 0.052,-0.16z" fill="#ffffff"></path><path d="M20.616,31.517c-5.641,-2.522 -11.281,-5.044 -16.922,-7.566c-0.922,-0.412 -0.926,-1.727 -0.007,-2.146c6.395,-2.912 12.789,-5.824 19.184,-8.736c1.244,-0.567 2.67,-0.572 3.918,-0.014c5.881,2.63 11.763,5.259 17.644,7.889c0.754,0.337 0.758,1.414 0.006,1.756c-6.442,2.934 -12.884,5.868 -19.327,8.801c-1.428,0.651 -3.064,0.657 -4.496,0.016z" fill="#000000"></path><path d="M45,14.035c0,-0.637 -1.686,-1.153 -3.769,-1.153c-1.812,0 -3.32,0.391 -3.683,0.911c-3.586,-1.694 -7.173,-3.388 -10.759,-5.083c-1.248,-0.59 -2.673,-0.584 -3.918,0.014c-3.818,1.837 -7.636,3.674 -11.454,5.511c-0.864,-0.126 -1.907,-0.201 -3.032,-0.201c-2.977,0.001 -5.385,0.517 -5.385,1.154v3.46c0,0.033 0.033,0.064 0.045,0.096c-0.146,0.555 0.07,1.205 0.649,1.478c5.641,2.665 11.281,5.329 16.922,7.994c1.432,0.677 3.068,0.671 4.496,-0.016c6.442,-3.1 12.884,-6.199 19.327,-9.299c0.484,-0.233 0.651,-0.786 0.509,-1.247c0.023,-0.053 0.052,-0.105 0.052,-0.16z" fill="#ffffff"></path><path d="M20.616,23.877c-5.641,-2.522 -11.281,-5.044 -16.922,-7.566c-0.922,-0.412 -0.926,-1.727 -0.007,-2.146c6.395,-2.912 12.789,-5.824 19.184,-8.736c1.244,-0.567 2.67,-0.572 3.918,-0.014c5.881,2.63 11.763,5.259 17.644,7.889c0.754,0.337 0.758,1.414 0.006,1.756c-6.442,2.934 -12.884,5.868 -19.327,8.801c-1.428,0.651 -3.064,0.656 -4.496,0.016z" fill="#000000"></path><path d="M18.748,14.741c-0.002,1.042 -2.762,2.057 -5.093,2.086c-2.419,0.03 -5.273,-0.993 -5.282,-2.051c-0.009,-1.061 2.842,-2.161 5.311,-2.135c2.333,0.024 5.067,1.062 5.064,2.1z" fill="#ffffff"></path><path d="M17.038,18.471c2.393,1.022 4.785,2.045 7.178,3.067c1.054,-1.56 2.108,-3.12 3.162,-4.68c-3.447,0.538 -6.893,1.076 -10.34,1.613z" fill="#ffffff"></path><path d="M21.86,9.775c-1.101,0.401 -2.203,0.801 -3.304,1.202c1.507,0.132 3.015,0.264 4.522,0.395c0.48,0.796 0.959,1.592 1.439,2.387c0.295,-0.722 0.59,-1.444 0.885,-2.166c1.286,-0.1 2.572,-0.2 3.858,-0.3c-0.997,-0.419 -1.994,-0.839 -2.991,-1.259c0.254,-0.608 0.508,-1.216 0.762,-1.825c-0.97,0.29 -1.939,0.58 -2.909,0.87c-1.07,-0.422 -2.14,-0.843 -3.21,-1.265c0.316,0.654 0.632,1.308 0.948,1.961z" fill="#ffffff"></path><path d="M27.267,14.619c2.271,-0.906 4.543,-1.813 6.814,-2.719c1.962,0.834 3.924,1.668 5.886,2.502c-2.202,0.876 -4.403,1.752 -6.605,2.629c-2.031,-0.805 -4.063,-1.608 -6.095,-2.412z" fill="#ffffff"></path><path d="M34.082,11.963c-0.005,1.596 -0.01,3.191 -0.015,4.787c1.967,-0.783 3.934,-1.565 5.901,-2.348c-1.962,-0.813 -3.924,-1.626 -5.886,-2.439z" fill="#ffffff"></path></g></g></svg>